<svg width="809" height="618" viewBox="0 0 809 618" fill="none" xmlns="http://www.w3.org/2000/svg">
<path d="M764.022 455.646C756.59 495.283 734.294 515.101 697.134 515.101C650.685 515.101 632.725 485.993 640.156 443.879L682.89 204.819C689.703 168.898 711.379 145.983 750.396 145.983C791.891 145.983 814.187 170.137 806.755 214.109L784.459 339.832H703.947L684.748 446.356C681.651 463.697 687.225 472.368 700.231 472.368C711.998 472.368 716.953 463.078 719.43 450.072L733.675 367.702H779.505L764.022 455.646ZM710.76 302.053H746.68L762.164 212.251C765.26 194.91 759.686 186.859 746.68 186.859C736.152 186.859 729.339 194.91 726.862 210.393L710.76 302.053Z" fill="white"/>
<path d="M103.427 515.102C85.4669 515.102 71.2225 503.954 68.1258 483.516L44.5915 617.291H0L81.751 150.319H115.814L116.433 177.569C125.723 156.512 139.968 146.603 159.786 146.603C188.275 146.603 204.377 169.518 196.326 216.587L154.212 452.55C146.78 499.619 126.962 515.102 103.427 515.102ZM90.4216 471.13C100.95 471.13 107.763 461.84 110.859 443.879L151.115 214.11C154.212 196.149 149.257 186.859 136.871 186.859C125.104 186.859 118.291 199.246 115.814 214.729L75.5577 441.402C72.4611 461.22 77.4157 471.13 90.4216 471.13Z" fill="white"/>
<path d="M393.414 0C430.2 -9.99914e-05 457.2 28.3496 450.962 66.0271L441.194 119.595L382.404 459.366H382.259L375.527 496.858C373.084 511.106 378.061 520.383 391.065 520.355C402.83 520.326 405.909 511.03 408.356 498.019L423.169 409.151C430.025 370.142 449.253 348.486 490.128 348.531C521.885 348.566 550.191 370.399 543.974 414.879L537.151 448.836C534.673 463.08 539.628 472.369 552.634 472.369C564.397 472.367 567.497 463.079 569.974 450.076L581.743 385.047C586.076 361.516 573.688 353.459 554.49 338.597C536.53 324.353 517.335 309.486 524.147 271.088L535.911 204.82C542.724 166.425 560.69 145.984 601.563 145.984C641.194 145.986 662.869 167.047 655.439 209.156L643.053 282.235H599.083L612.087 209.156C614.562 194.297 610.846 186.865 599.083 186.863C589.175 186.863 582.981 193.678 580.503 208.539L569.357 269.848C566.26 287.808 575.55 295.862 595.986 311.344C617.661 326.827 634.999 342.936 627.57 381.95L614.566 454.412C607.754 493.426 588.551 515.103 547.68 515.105C514.501 515.107 485.126 486.063 490.701 448.836L497.434 414.879C499.926 400.64 495.57 391.275 485.126 391.261C473.36 391.248 470.248 400.534 467.756 413.536L452.417 502.198C445.694 541.231 427.585 562.856 386.71 562.952C352.643 563.031 323.406 537.76 330.124 496.87L405.553 66.0392C407.997 51.7894 403.022 42.5063 390.015 42.5363C378.251 42.5649 375.177 51.8632 372.73 64.8719L297.882 510.152H263.202V477.945C253.912 502.099 239.044 514.488 219.226 514.488C188.261 514.487 174.64 494.666 183.929 443.882L236.572 150.326H282.398L230.379 445.122C227.282 464.941 232.237 472.375 242.765 472.375C252.673 472.373 259.484 462.462 263.819 443.266L327.708 60.7532C334.431 21.7212 352.539 0.0950811 393.414 0Z" fill="white"/>
<path d="M393.414 0C430.2 -9.99914e-05 457.2 28.3496 450.962 66.0271L441.194 119.595L382.404 459.366H382.259L375.527 496.858C373.084 511.106 378.061 520.383 391.065 520.355C402.83 520.326 405.909 511.03 408.356 498.019L423.169 409.151C430.025 370.142 449.253 348.486 490.128 348.531C521.885 348.566 550.191 370.399 543.974 414.879L537.151 448.836C534.673 463.08 539.628 472.369 552.634 472.369C564.397 472.367 567.497 463.079 569.974 450.076L581.743 385.047C586.076 361.516 573.688 353.459 554.49 338.597C536.53 324.353 517.335 309.486 524.147 271.088L535.911 204.82C542.724 166.425 560.69 145.984 601.563 145.984C641.194 145.986 662.869 167.047 655.439 209.156L643.053 282.235H599.083L612.087 209.156C614.562 194.297 610.846 186.865 599.083 186.863C589.175 186.863 582.981 193.678 580.503 208.539L569.357 269.848C566.26 287.808 575.55 295.862 595.986 311.344C617.661 326.827 634.999 342.936 627.57 381.95L614.566 454.412C607.754 493.426 588.551 515.103 547.68 515.105C514.501 515.107 485.126 486.063 490.701 448.836L497.434 414.879C499.926 400.64 495.57 391.275 485.126 391.261C473.36 391.248 470.248 400.534 467.756 413.536L452.417 502.198C445.694 541.231 427.585 562.856 386.71 562.952C352.643 563.031 323.406 537.76 330.124 496.87L405.553 66.0392C407.997 51.7894 403.022 42.5063 390.015 42.5363C378.251 42.5649 375.177 51.8632 372.73 64.8719L297.882 510.152H263.202V477.945C253.912 502.099 239.044 514.488 219.226 514.488C188.261 514.487 174.64 494.666 183.929 443.882L236.572 150.326H282.398L230.379 445.122C227.282 464.941 232.237 472.375 242.765 472.375C252.673 472.373 259.484 462.462 263.819 443.266L327.708 60.7532C334.431 21.7212 352.539 0.0950811 393.414 0Z" fill="white"/>
</svg>
